<svg width="68" height="23" viewBox="0 0 68 23" fill="none" xmlns="http://www.w3.org/2000/svg">
<g clip-path="url(#clip0_604_1406)">
<path d="M25.3939 14.3603H28.4058V22.4237H30.5732V14.3603H33.5852V12.5905H25.3939V14.3603ZM12.8429 19.223H12.816C12.7598 18.9872 12.4409 18.4145 11.9131 17.6486L8.44066 12.5792H6.45515V22.4124H8.46761V16.0202H8.49681C8.57992 16.2425 8.84495 16.84 9.34357 17.525L12.8699 22.4147H14.8419V12.5792H12.8429V19.223ZM55.2169 22.4237H57.3844V12.5905H55.2169V22.4237ZM64.3 12.577H61.7305C59.9134 15.4587 58.9678 19.122 58.4265 22.4237H60.6052C60.7175 21.6443 60.868 20.838 61.0499 20.0406H64.8008C64.9962 20.8357 65.1332 21.6443 65.2321 22.4237H67.6196C67.0491 19.0546 66.1327 15.5867 64.3 12.577ZM61.3711 18.4145C61.7597 16.9231 62.274 15.5171 62.9119 14.2346H62.9411C63.5925 15.5305 64.0911 16.9523 64.4796 18.4145H61.3711ZM51.6435 20.8245C50.1004 20.8245 48.755 19.6116 48.755 17.5655C48.755 16.0067 49.4491 14.1672 51.4907 14.1672C52.1174 14.1672 52.8249 14.3491 53.4628 14.695L54.1703 12.8982C53.4628 12.5792 52.5733 12.3277 51.3672 12.3277C48.0767 12.3277 46.5067 14.8747 46.5067 17.6194C46.5067 20.5168 48.3822 22.6617 51.3672 22.6617C52.3263 22.6617 53.4785 22.3406 54.186 21.9789L53.602 20.2922C53.1146 20.5864 52.4206 20.8245 51.6435 20.8245ZM22.447 20.8649C22.0427 20.9615 21.6407 21.0199 21.2252 21.0199C19.6979 21.0199 18.2806 20.4629 18.2806 18.7222V12.5905H16.1154V18.5245C16.1154 21.6735 18.1414 22.6752 21.1286 22.6752C22.2786 22.6752 23.4331 22.5494 24.5583 22.3428V12.5905H22.4493V20.8649H22.447ZM43.2208 22.4237H45.386V12.5905H43.2208V22.4237ZM41.826 15.3778C41.826 12.8982 39.5462 12.5635 37.6034 12.5635H34.4252V22.3967H36.5904V18.4684H37.271C37.4933 18.4684 37.7022 18.511 37.9223 18.9558L39.7282 22.4282H42.3223L39.672 17.9271C40.95 17.662 41.826 16.7277 41.826 15.3778ZM37.7718 16.8804H36.5904V14.275H37.6461C38.5063 14.275 39.5754 14.4142 39.5754 15.5418C39.5754 16.6289 38.6029 16.8804 37.7718 16.8804ZM16.7129 1.66791C21.1533 1.66791 25.0682 3.5793 27.8533 6.62494C25.1221 2.73029 20.6098 0.324768 15.5719 0.324768C6.97174 0.324768 0 7.44251 0 16.2246C0 18.419 0.435734 20.5123 1.2241 22.4147H4.01369C2.90864 20.4269 2.27974 18.1494 2.27974 15.7282C2.27974 7.96359 8.74163 1.66791 16.7129 1.66791Z" fill="white"/>
</g>
<defs>
<clipPath id="clip0_604_1406">
<rect width="67.6196" height="22.3505" fill="white" transform="translate(0 0.324768)"/>
</clipPath>
</defs>
</svg>
